<svg width="349" height="278" viewBox="0 0 349 278" fill="none" xmlns="http://www.w3.org/2000/svg">
<path d="M196.854 129.198C196.284 128.101 195.682 126.945 195.053 125.736C190.196 116.407 183.677 103.931 177.034 91.3474C170.395 78.7715 163.617 66.0591 158.245 56.2705C155.564 51.3835 153.206 47.176 151.379 44.0628C150.471 42.5142 149.654 41.1689 148.973 40.1216C148.635 39.6024 148.285 39.086 147.942 38.6251C147.712 38.3152 147.105 37.5002 146.266 36.7914L141.424 42.5187L146.266 36.7914C142.455 33.5688 138.356 35.4826 137.321 36.102C136.145 36.8059 135.38 37.682 135.086 38.0266C134.362 38.8744 133.717 39.8892 133.211 40.7347C132.124 42.5519 130.773 45.1396 129.243 48.2417C126.151 54.5104 121.995 63.5602 117.169 74.3991C107.502 96.1082 94.9974 125.326 82.6337 154.603C70.2655 183.889 58.0214 213.275 48.8703 235.337C44.2945 246.368 40.4914 255.57 37.8321 262.014C36.9466 264.16 36.188 266 35.5698 267.5H11.5237L126.659 7.5H155.455L210.362 106.196L196.854 129.198ZM135.902 47.5709C135.866 47.5281 135.848 47.5033 135.848 47.5019C135.847 47.5004 135.865 47.5217 135.902 47.5709ZM311.422 28.4571C312.462 26.3988 313.348 24.6453 314.061 23.232L337.118 23.232L219.587 269.884H176.607L133.04 193.354L146.313 162.356C150.816 169.878 156.838 179.917 162.974 190.079C169.137 200.287 175.425 210.637 180.403 218.688C182.889 222.709 185.067 226.185 186.747 228.794C187.584 230.094 188.322 231.216 188.924 232.096C189.409 232.805 190.111 233.816 190.775 234.534C192.07 235.933 193.834 236.798 195.731 236.963C197.41 237.11 198.734 236.675 199.466 236.363C200.835 235.78 201.754 234.926 202.091 234.605C202.926 233.812 203.665 232.846 204.218 232.084C205.42 230.426 206.919 228.055 208.612 225.23C212.037 219.51 216.674 211.215 222.073 201.27C232.889 181.346 246.951 154.454 260.876 127.488C274.807 100.51 288.623 73.4149 298.955 53.0671C304.122 42.8924 308.418 34.4031 311.422 28.4571Z" stroke="black" stroke-width="15"/>
</svg>
